<?xml version="1.0" encoding="UTF-8"?>
<svg width="240px" height="40px" viewBox="0 0 240 40" version="1.1" xmlns="http://www.w3.org/2000/svg" xmlns:xlink="http://www.w3.org/1999/xlink">
    <!-- Generator: Sketch 48.2 (47327) - http://www.bohemiancoding.com/sketch -->
    <title>rose-100</title>
    <desc>Created with Sketch.</desc>
    <defs>
        <rect id="path-1" x="0" y="0" width="240" height="40" rx="3"></rect>
    </defs>
    <g id="Using-colors" stroke="none" stroke-width="1" fill="none" fill-rule="evenodd" transform="translate(-122.000000, -825.000000)">
        <g id="bg" transform="translate(122.000000, 825.000000)">
            <g id="rose">
                <g id="colors">
                    <g id="background">
                        <mask id="mask-2" fill="white">
                            <use xlink:href="#path-1"></use>
                        </mask>
                        <use id="mask" fill="#D8D8D8" fill-rule="evenodd" xlink:href="#path-1"></use>
                        <g id="color/bg/rose/100" mask="url(#mask-2)" fill="#FCE7DD" fill-rule="evenodd">
                            <rect id="bg" x="0" y="0" width="240" height="40"></rect>
                        </g>
                    </g>
                    <g id="colorName/dark" transform="translate(16.000000, 12.000000)" fill="#767676" font-family="Soleil-SemiBold, Soleil" font-size="15" font-weight="500" line-spacing="18">
                        <text id="colorName">
                            <tspan x="0" y="11">Rose 100</tspan>
                        </text>
                    </g>
                    <g id="text/large/success" transform="translate(208.000000, 8.000000)" fill-rule="evenodd">
                        <rect id="bg" fill="#FFFFFF" x="0" y="0" width="24" height="24" rx="4"></rect>
                        <path d="M12.9939375,5.4 L17.8179375,18 L15.8199375,18 L14.8299375,15.318 L9.4659375,15.318 L8.4939375,18 L6.6039375,18 L11.4819375,5.4 L12.9939375,5.4 Z M12.1659375,8.028 L12.1479375,8.028 L10.0419375,13.77 L14.2719375,13.77 L12.1659375,8.028 Z" id="text" fill="#2D2D2D"></path>
                    </g>
                    <g id="text/small/fail" transform="translate(179.000000, 8.000000)" fill-rule="evenodd">
                        <rect id="bg" fill-opacity="0.2" fill="#FFFFFF" x="0" y="0" width="24" height="24" rx="4"></rect>
                        <path d="M12.7730625,7.2 L16.5250625,17 L14.9710625,17 L14.2010625,14.914 L10.0290625,14.914 L9.2730625,17 L7.8030625,17 L11.5970625,7.2 L12.7730625,7.2 Z M12.1290625,9.244 L12.1150625,9.244 L10.4770625,13.71 L13.7670625,13.71 L12.1290625,9.244 Z" id="text" fill="#767676"></path>
                    </g>
                </g>
            </g>
        </g>
    </g>
</svg>