<?xml version="1.0" encoding="UTF-8"?>
<svg width="400px" height="76px" viewBox="0 0 400 76" version="1.1" xmlns="http://www.w3.org/2000/svg" xmlns:xlink="http://www.w3.org/1999/xlink">
    <!-- Generator: Sketch 48.2 (47327) - http://www.bohemiancoding.com/sketch -->
    <title>meridian.id-modified-cut</title>
    <desc>Created with Sketch.</desc>
    <defs></defs>
    <g id="Wordmark" stroke="none" stroke-width="1" fill="none" fill-rule="evenodd" transform="translate(-308.000000, -1463.000000)">
        <g id="wordmark-modified-copy" transform="translate(308.000000, 1463.000000)" fill="#272727">
            <path d="M75.1298362,39.2145749 L75.1298362,72.7368421 L61.6199066,72.7368421 L61.6199066,42.3238866 C61.6199066,36.2995951 58.5850674,32.7044534 53.5922673,32.7044534 C48.6973653,32.7044534 45.2709339,36.2995951 45.2709339,42.4210526 L45.2709339,72.7368421 L31.7610043,72.7368421 L31.7610043,41.8380567 C31.7610043,36.1052632 28.8240631,32.7044534 23.831263,32.7044534 C19.034259,32.7044534 15.5099296,36.2995951 15.5099296,42.3238866 L15.5099296,72.7368421 L2,72.7368421 L2,21.9190283 L15.2162355,21.9190283 L15.2162355,27.8461538 C17.0762982,24.3481781 21.5796081,20.6558704 28.530369,20.6558704 C35.0895377,20.6558704 39.8865417,23.5708502 42.5297887,28.2348178 C45.564628,23.5708502 50.8511222,20.6558704 57.703985,20.6558704 C69.3538518,20.6558704 75.1298362,28.3319838 75.1298362,39.2145749 Z M80.275602,47.4736842 C80.275602,32.1214575 90.7506923,20.6558704 105.3375,20.6558704 C121.196983,20.6558704 130.203603,31.1497976 130.203603,47.7651822 C130.203603,48.7368421 130.203603,49.708502 130.105705,50.6801619 L94.0792257,50.6801619 C94.3729198,57.4817814 99.8552101,62.340081 107.393359,62.340081 C110.071856,62.340081 113.133526,61.3643781 116.578368,59.4129724 L125.431023,67.015069 C119.105935,71.6716897 113.028116,74 107.197563,74 C90.7506923,74 80.275602,62.7287449 80.275602,47.4736842 Z M94.4708178,41.9352227 L116.497877,41.9352227 C116.204183,35.7165992 111.700873,31.6356275 105.533296,31.6356275 C99.1699238,31.6356275 95.0582061,36.1052632 94.4708178,41.9352227 Z M162.76082,20.6558704 L162.76082,34.2591093 C152.677322,34.2591093 148.957196,40.4777328 148.957196,50.582996 L148.957196,72.7368421 L135.447266,72.7368421 L135.447266,21.9190283 L147.663502,21.9190283 L148.663502,29.3036437 C150.915157,24.2510121 156.005855,20.6558704 162.76082,20.6558704 Z M169.396076,72.7368421 L169.396076,21.9190283 L182.906005,21.9190283 L182.906005,72.7368421 L169.396076,72.7368421 Z M168.221299,9.67611336 C168.221299,5.30364372 171.647731,2 176.053142,2 C180.556452,2 183.982884,5.30364372 183.982884,9.67611336 C183.982884,14.048583 180.556452,17.3522267 176.053142,17.3522267 C171.647731,17.3522267 168.221299,14.048583 168.221299,9.67611336 Z M241.406203,2.48582996 L241.406203,72.7368421 L229.679458,72.7368421 L228.679458,67.4898785 C227.308885,69.1417004 222.218187,74 213.505261,74 C198.820555,74 188.443363,63.0202429 188.443363,47.3765182 C188.443363,31.6356275 198.037371,20.6558704 212.722077,20.6558704 C221.532901,20.6558704 226.623599,25.51417 227.896273,27.2631579 L227.896273,2.48582996 L241.406203,2.48582996 Z M228.287866,47.4736842 C228.287866,37.951417 222.609779,32.5101215 215.169528,32.5101215 C207.337685,32.5101215 202.051191,38.6315789 202.051191,47.4736842 C202.051191,56.5101215 207.533481,62.145749 215.169528,62.145749 C223.392964,62.145749 228.287866,55.5384615 228.287866,47.4736842 Z M249.684706,72.7368421 L249.684706,21.9190283 L263.194636,21.9190283 L263.194636,72.7368421 L249.684706,72.7368421 Z M248.50993,9.67611336 C248.50993,5.30364372 251.936361,2 256.341773,2 C260.845083,2 264.271514,5.30364372 264.271514,9.67611336 C264.271514,14.048583 260.845083,17.3522267 256.341773,17.3522267 C251.936361,17.3522267 248.50993,14.048583 248.50993,9.67611336 Z M321.406203,21.9771953 L321.406203,37.611336 L321.406203,72.7368421 L309.679458,72.7368421 L308.679458,67.4898785 C307.308885,69.1417004 302.218187,74 293.505261,74 C278.820555,74 268.443363,63.0202429 268.443363,47.3765182 C268.443363,31.6356275 278.037371,20.6558704 292.722077,20.6558704 C301.532901,20.6558704 306.623599,25.51417 307.896273,27.2631579 L307.896273,21.9771953 L321.406203,21.9771953 Z M308.287866,47.4736842 C308.287866,37.951417 302.609779,32.5101215 295.169528,32.5101215 C287.337685,32.5101215 282.051191,38.6315789 282.051191,47.4736842 C282.051191,56.5101215 287.533481,62.145749 295.169528,62.145749 C303.392964,62.145749 308.287866,55.5384615 308.287866,47.4736842 Z M356.692882,20.6558704 C371.27969,20.6558704 374.412427,32.6072874 374.412427,43.3927126 L374.412427,72.7368421 L360.902498,72.7368421 L360.902498,41.8380567 C360.902498,36.2024291 356.986576,32.7044534 352.385368,32.7044534 C346.80518,32.7044534 343.28085,36.7854251 343.28085,42.2267206 L343.28085,72.7368421 L329.770921,72.7368421 L329.770921,21.9190283 L341.987156,21.9190283 L342.987156,27.8461538 C345.140913,24.3481781 350.035815,20.6558704 356.692882,20.6558704 Z M388.956405,74 C384.257299,74 380.635071,70.3076923 380.635071,65.8380567 C380.635071,61.2712551 384.257299,57.4817814 388.956405,57.4817814 C393.655511,57.4817814 397.277738,61.2712551 397.277738,65.8380567 C397.277738,70.3076923 393.655511,74 388.956405,74 Z" id="meridian.id-medium-complete"></path>
        </g>
    </g>
</svg>