<?xml version="1.0" encoding="UTF-8"?>
<svg width="400px" height="76px" viewBox="0 0 400 76" version="1.1" xmlns="http://www.w3.org/2000/svg" xmlns:xlink="http://www.w3.org/1999/xlink">
    <!-- Generator: Sketch 48.2 (47327) - http://www.bohemiancoding.com/sketch -->
    <title>meridian.id-modified-r-cut</title>
    <desc>Created with Sketch.</desc>
    <defs></defs>
    <g id="Wordmark" stroke="none" stroke-width="1" fill="none" fill-rule="evenodd" transform="translate(-307.000000, -1563.000000)">
        <g id="wordmark-modified-r-cut" transform="translate(307.000000, 1563.000000)" fill="#1E1E1E">
            <path d="M76.1298362,39.2145749 L76.1298362,72.7368421 L62.6199066,72.7368421 L62.6199066,42.3238866 C62.6199066,36.2995951 59.5850674,32.7044534 54.5922673,32.7044534 C49.6973653,32.7044534 46.2709339,36.2995951 46.2709339,42.4210526 L46.2709339,72.7368421 L32.7610043,72.7368421 L32.7610043,41.8380567 C32.7610043,36.1052632 29.8240631,32.7044534 24.831263,32.7044534 C20.034259,32.7044534 16.5099296,36.2995951 16.5099296,42.3238866 L16.5099296,72.7368421 L3,72.7368421 L3,21.9190283 L16.2162355,21.9190283 L16.2162355,27.8461538 C18.0762982,24.3481781 22.5796081,20.6558704 29.530369,20.6558704 C36.0895377,20.6558704 40.8865417,23.5708502 43.5297887,28.2348178 C46.564628,23.5708502 51.8511222,20.6558704 58.703985,20.6558704 C70.3538518,20.6558704 76.1298362,28.3319838 76.1298362,39.2145749 Z M81.275602,47.4736842 C81.275602,32.1214575 91.7506923,20.6558704 106.3375,20.6558704 C122.196983,20.6558704 131.203603,31.1497976 131.203603,47.7651822 C131.203603,48.7368421 131.203603,49.708502 131.105705,50.6801619 L95.0792257,50.6801619 C95.3729198,57.4817814 100.85521,62.340081 108.393359,62.340081 C111.071856,62.340081 114.133526,61.3643781 117.578368,59.4129724 L126.431023,67.015069 C120.105935,71.6716897 114.028116,74 108.197563,74 C91.7506923,74 81.275602,62.7287449 81.275602,47.4736842 Z M95.4708178,41.9352227 L117.497877,41.9352227 C117.204183,35.7165992 112.700873,31.6356275 106.533296,31.6356275 C100.169924,31.6356275 96.0582061,36.1052632 95.4708178,41.9352227 Z M163.76082,20.6558704 C165.01488,20.6558704 166.532543,20.8866645 168.313809,21.3482525 L164.747931,35.3340859 C154.664432,35.3340859 149.957196,40.4777328 149.957196,50.582996 L149.957196,72.7368421 L136.447266,72.7368421 L136.447266,21.9190283 L148.663502,21.9190283 L149.663502,29.3036437 C151.915157,24.2510121 157.005855,20.6558704 163.76082,20.6558704 Z M173.396076,72.7368421 L173.396076,21.9190283 L186.906005,21.9190283 L186.906005,72.7368421 L173.396076,72.7368421 Z M172.221299,9.67611336 C172.221299,5.30364372 175.647731,2 180.053142,2 C184.556452,2 187.982884,5.30364372 187.982884,9.67611336 C187.982884,14.048583 184.556452,17.3522267 180.053142,17.3522267 C175.647731,17.3522267 172.221299,14.048583 172.221299,9.67611336 Z M245.406203,2.48582996 L245.406203,72.7368421 L233.679458,72.7368421 L232.679458,67.4898785 C231.308885,69.1417004 226.218187,74 217.505261,74 C202.820555,74 192.443363,63.0202429 192.443363,47.3765182 C192.443363,31.6356275 202.037371,20.6558704 216.722077,20.6558704 C225.532901,20.6558704 230.623599,25.51417 231.896273,27.2631579 L231.896273,2.48582996 L245.406203,2.48582996 Z M232.287866,47.4736842 C232.287866,37.951417 226.609779,32.5101215 219.169528,32.5101215 C211.337685,32.5101215 206.051191,38.6315789 206.051191,47.4736842 C206.051191,56.5101215 211.533481,62.145749 219.169528,62.145749 C227.392964,62.145749 232.287866,55.5384615 232.287866,47.4736842 Z M253.684706,72.7368421 L253.684706,21.9190283 L267.194636,21.9190283 L267.194636,72.7368421 L253.684706,72.7368421 Z M252.50993,9.67611336 C252.50993,5.30364372 255.936361,2 260.341773,2 C264.845083,2 268.271514,5.30364372 268.271514,9.67611336 C268.271514,14.048583 264.845083,17.3522267 260.341773,17.3522267 C255.936361,17.3522267 252.50993,14.048583 252.50993,9.67611336 Z M325.406203,21.9771953 L325.406203,37.611336 L325.406203,72.7368421 L313.679458,72.7368421 L312.679458,67.4898785 C311.308885,69.1417004 306.218187,74 297.505261,74 C282.820555,74 272.443363,63.0202429 272.443363,47.3765182 C272.443363,31.6356275 282.037371,20.6558704 296.722077,20.6558704 C305.532901,20.6558704 310.623599,25.51417 311.896273,27.2631579 L311.896273,21.9771953 L325.406203,21.9771953 Z M312.287866,47.4736842 C312.287866,37.951417 306.609779,32.5101215 299.169528,32.5101215 C291.337685,32.5101215 286.051191,38.6315789 286.051191,47.4736842 C286.051191,56.5101215 291.533481,62.145749 299.169528,62.145749 C307.392964,62.145749 312.287866,55.5384615 312.287866,47.4736842 Z M360.692882,20.6558704 C375.27969,20.6558704 378.412427,32.6072874 378.412427,43.3927126 L378.412427,72.7368421 L364.902498,72.7368421 L364.902498,41.8380567 C364.902498,36.2024291 360.986576,32.7044534 356.385368,32.7044534 C350.80518,32.7044534 347.28085,36.7854251 347.28085,42.2267206 L347.28085,72.7368421 L333.770921,72.7368421 L333.770921,21.9190283 L345.987156,21.9190283 L346.987156,27.8461538 C349.140913,24.3481781 354.035815,20.6558704 360.692882,20.6558704 Z M392.321333,73.5182186 C387.622227,73.5182186 384,69.8259109 384,65.3562753 C384,60.7894737 387.622227,57 392.321333,57 C397.020439,57 400.642667,60.7894737 400.642667,65.3562753 C400.642667,69.8259109 397.020439,73.5182186 392.321333,73.5182186 Z" id="meridian.id-medium-complete"></path>
        </g>
    </g>
</svg>