<?xml version="1.0" encoding="UTF-8"?>
<svg width="480px" height="76px" viewBox="0 0 480 76" version="1.1" xmlns="http://www.w3.org/2000/svg" xmlns:xlink="http://www.w3.org/1999/xlink">
    <!-- Generator: Sketch 48.2 (47327) - http://www.bohemiancoding.com/sketch -->
    <title>meridian.id-modified-r</title>
    <desc>Created with Sketch.</desc>
    <defs></defs>
    <g id="Wordmark" stroke="none" stroke-width="1" fill="none" fill-rule="evenodd" transform="translate(-308.000000, -1463.000000)">
        <g id="wordmark-modified-r" transform="translate(308.000000, 1463.000000)" fill="#1E1E1E">
            <path d="M75.1298362,39.2145749 L75.1298362,72.7368421 L61.6199066,72.7368421 L61.6199066,42.3238866 C61.6199066,36.2995951 58.5850674,32.7044534 53.5922673,32.7044534 C48.6973653,32.7044534 45.2709339,36.2995951 45.2709339,42.4210526 L45.2709339,72.7368421 L31.7610043,72.7368421 L31.7610043,41.8380567 C31.7610043,36.1052632 28.8240631,32.7044534 23.831263,32.7044534 C19.034259,32.7044534 15.5099296,36.2995951 15.5099296,42.3238866 L15.5099296,72.7368421 L2,72.7368421 L2,21.9190283 L15.2162355,21.9190283 L15.2162355,27.8461538 C17.0762982,24.3481781 21.5796081,20.6558704 28.530369,20.6558704 C35.0895377,20.6558704 39.8865417,23.5708502 42.5297887,28.2348178 C45.564628,23.5708502 50.8511222,20.6558704 57.703985,20.6558704 C69.3538518,20.6558704 75.1298362,28.3319838 75.1298362,39.2145749 Z M80.275602,47.4736842 C80.275602,32.1214575 90.7506923,20.6558704 105.3375,20.6558704 C121.196983,20.6558704 130.203603,31.1497976 130.203603,47.7651822 C130.203603,48.7368421 130.203603,49.708502 130.105705,50.6801619 L94.0792257,50.6801619 C94.3729198,57.4817814 99.8552101,62.340081 107.393359,62.340081 C110.071856,62.340081 113.133526,61.3643781 116.578368,59.4129724 L125.431023,67.015069 C119.105935,71.6716897 113.028116,74 107.197563,74 C90.7506923,74 80.275602,62.7287449 80.275602,47.4736842 Z M94.4708178,41.9352227 L116.497877,41.9352227 C116.204183,35.7165992 111.700873,31.6356275 105.533296,31.6356275 C99.1699238,31.6356275 95.0582061,36.1052632 94.4708178,41.9352227 Z M162.76082,20.6558704 C164.01488,20.6558704 165.532543,20.8866645 167.313809,21.3482525 L163.747931,35.3340859 C153.664432,35.3340859 148.957196,40.4777328 148.957196,50.582996 L148.957196,72.7368421 L135.447266,72.7368421 L135.447266,21.9190283 L147.663502,21.9190283 L148.663502,29.3036437 C150.915157,24.2510121 156.005855,20.6558704 162.76082,20.6558704 Z M172.396076,72.7368421 L172.396076,21.9190283 L185.906005,21.9190283 L185.906005,72.7368421 L172.396076,72.7368421 Z M171.221299,9.67611336 C171.221299,5.30364372 174.647731,2 179.053142,2 C183.556452,2 186.982884,5.30364372 186.982884,9.67611336 C186.982884,14.048583 183.556452,17.3522267 179.053142,17.3522267 C174.647731,17.3522267 171.221299,14.048583 171.221299,9.67611336 Z M244.406203,2.48582996 L244.406203,72.7368421 L232.679458,72.7368421 L231.679458,67.4898785 C230.308885,69.1417004 225.218187,74 216.505261,74 C201.820555,74 191.443363,63.0202429 191.443363,47.3765182 C191.443363,31.6356275 201.037371,20.6558704 215.722077,20.6558704 C224.532901,20.6558704 229.623599,25.51417 230.896273,27.2631579 L230.896273,2.48582996 L244.406203,2.48582996 Z M231.287866,47.4736842 C231.287866,37.951417 225.609779,32.5101215 218.169528,32.5101215 C210.337685,32.5101215 205.051191,38.6315789 205.051191,47.4736842 C205.051191,56.5101215 210.533481,62.145749 218.169528,62.145749 C226.392964,62.145749 231.287866,55.5384615 231.287866,47.4736842 Z M252.684706,72.7368421 L252.684706,21.9190283 L266.194636,21.9190283 L266.194636,72.7368421 L252.684706,72.7368421 Z M251.50993,9.67611336 C251.50993,5.30364372 254.936361,2 259.341773,2 C263.845083,2 267.271514,5.30364372 267.271514,9.67611336 C267.271514,14.048583 263.845083,17.3522267 259.341773,17.3522267 C254.936361,17.3522267 251.50993,14.048583 251.50993,9.67611336 Z M324.406203,21.9771953 L324.406203,37.611336 L324.406203,72.7368421 L312.679458,72.7368421 L311.679458,67.4898785 C310.308885,69.1417004 305.218187,74 296.505261,74 C281.820555,74 271.443363,63.0202429 271.443363,47.3765182 C271.443363,31.6356275 281.037371,20.6558704 295.722077,20.6558704 C304.532901,20.6558704 309.623599,25.51417 310.896273,27.2631579 L310.896273,21.9771953 L324.406203,21.9771953 Z M311.287866,47.4736842 C311.287866,37.951417 305.609779,32.5101215 298.169528,32.5101215 C290.337685,32.5101215 285.051191,38.6315789 285.051191,47.4736842 C285.051191,56.5101215 290.533481,62.145749 298.169528,62.145749 C306.392964,62.145749 311.287866,55.5384615 311.287866,47.4736842 Z M359.692882,20.6558704 C374.27969,20.6558704 377.412427,32.6072874 377.412427,43.3927126 L377.412427,72.7368421 L363.902498,72.7368421 L363.902498,41.8380567 C363.902498,36.2024291 359.986576,32.7044534 355.385368,32.7044534 C349.80518,32.7044534 346.28085,36.7854251 346.28085,42.2267206 L346.28085,72.7368421 L332.770921,72.7368421 L332.770921,21.9190283 L344.987156,21.9190283 L345.987156,27.8461538 C348.140913,24.3481781 353.035815,20.6558704 359.692882,20.6558704 Z M391.956405,74 C387.257299,74 383.635071,70.3076923 383.635071,65.8380567 C383.635071,61.2712551 387.257299,57.4817814 391.956405,57.4817814 C396.655511,57.4817814 400.277738,61.2712551 400.277738,65.8380567 C400.277738,70.3076923 396.655511,74 391.956405,74 Z M407,72.8178138 L407,22 L420.50993,22 L420.50993,72.8178138 L407,72.8178138 Z M406,9.67611336 C406,5.30364372 409.426431,2 413.831843,2 C418.335153,2 421.761585,5.30364372 421.761585,9.67611336 C421.761585,14.048583 418.335153,17.3522267 413.831843,17.3522267 C409.426431,17.3522267 406,14.048583 406,9.67611336 Z M478.96284,2 L478.96284,72.2510121 L467.236095,72.2510121 L466.236095,67.0040486 C464.865522,68.6558704 459.774824,73.51417 451.061898,73.51417 C436.377192,73.51417 426,62.534413 426,46.8906883 C426,31.1497976 435.594008,20.1700405 450.278714,20.1700405 C459.089538,20.1700405 464.180236,25.0283401 465.45291,26.7773279 L465.45291,2 L478.96284,2 Z M466.236675,47.9635628 C466.236675,38.4412955 460.558588,33 453.118337,33 C445.286494,33 440,39.1214575 440,47.9635628 C440,57 445.48229,62.6356275 453.118337,62.6356275 C461.341773,62.6356275 466.236675,56.0283401 466.236675,47.9635628 Z" id="meridian.id-medium-complete"></path>
        </g>
    </g>
</svg>