<?xml version="1.0" encoding="UTF-8"?>
<svg width="474px" height="72px" viewBox="0 0 474 72" version="1.1" xmlns="http://www.w3.org/2000/svg" xmlns:xlink="http://www.w3.org/1999/xlink">
    <!-- Generator: Sketch 48.2 (47327) - http://www.bohemiancoding.com/sketch -->
    <title>meridian.id-modified</title>
    <desc>Created with Sketch.</desc>
    <defs></defs>
    <g id="Wordmark" stroke="none" stroke-width="1" fill="none" fill-rule="evenodd" transform="translate(-308.000000, -1363.000000)">
        <g id="wordmark-modified" transform="translate(308.000000, 1363.000000)" fill="#272727">
            <path d="M73.1298362,37.2145749 L73.1298362,70.7368421 L59.6199066,70.7368421 L59.6199066,40.3238866 C59.6199066,34.2995951 56.5850674,30.7044534 51.5922673,30.7044534 C46.6973653,30.7044534 43.2709339,34.2995951 43.2709339,40.4210526 L43.2709339,70.7368421 L29.7610043,70.7368421 L29.7610043,39.8380567 C29.7610043,34.1052632 26.8240631,30.7044534 21.831263,30.7044534 C17.034259,30.7044534 13.5099296,34.2995951 13.5099296,40.3238866 L13.5099296,70.7368421 L0,70.7368421 L0,19.9190283 L13.2162355,19.9190283 L13.2162355,25.8461538 C15.0762982,22.3481781 19.5796081,18.6558704 26.530369,18.6558704 C33.0895377,18.6558704 37.8865417,21.5708502 40.5297887,26.2348178 C43.564628,21.5708502 48.8511222,18.6558704 55.703985,18.6558704 C67.3538518,18.6558704 73.1298362,26.3319838 73.1298362,37.2145749 Z M78.275602,45.4736842 C78.275602,30.1214575 88.7506923,18.6558704 103.3375,18.6558704 C119.196983,18.6558704 128.203603,29.1497976 128.203603,45.7651822 C128.203603,46.7368421 128.203603,47.708502 128.105705,48.6801619 L92.0792257,48.6801619 C92.3729198,55.4817814 97.8552101,60.340081 105.393359,60.340081 C108.071856,60.340081 111.133526,59.3643781 114.578368,57.4129724 L123.431023,65.015069 C117.105935,69.6716897 111.028116,72 105.197563,72 C88.7506923,72 78.275602,60.7287449 78.275602,45.4736842 Z M92.4708178,39.9352227 L114.497877,39.9352227 C114.204183,33.7165992 109.700873,29.6356275 103.533296,29.6356275 C97.1699238,29.6356275 93.0582061,34.1052632 92.4708178,39.9352227 Z M160.76082,18.6558704 L160.76082,32.2591093 C150.677322,32.2591093 146.957196,38.4777328 146.957196,48.582996 L146.957196,70.7368421 L133.447266,70.7368421 L133.447266,19.9190283 L145.663502,19.9190283 L146.663502,27.3036437 C148.915157,22.2510121 154.005855,18.6558704 160.76082,18.6558704 Z M167.396076,70.7368421 L167.396076,19.9190283 L180.906005,19.9190283 L180.906005,70.7368421 L167.396076,70.7368421 Z M166.221299,7.67611336 C166.221299,3.30364372 169.647731,0 174.053142,0 C178.556452,0 181.982884,3.30364372 181.982884,7.67611336 C181.982884,12.048583 178.556452,15.3522267 174.053142,15.3522267 C169.647731,15.3522267 166.221299,12.048583 166.221299,7.67611336 Z M239.406203,0.48582996 L239.406203,70.7368421 L227.679458,70.7368421 L226.679458,65.4898785 C225.308885,67.1417004 220.218187,72 211.505261,72 C196.820555,72 186.443363,61.0202429 186.443363,45.3765182 C186.443363,29.6356275 196.037371,18.6558704 210.722077,18.6558704 C219.532901,18.6558704 224.623599,23.51417 225.896273,25.2631579 L225.896273,0.48582996 L239.406203,0.48582996 Z M226.287866,45.4736842 C226.287866,35.951417 220.609779,30.5101215 213.169528,30.5101215 C205.337685,30.5101215 200.051191,36.6315789 200.051191,45.4736842 C200.051191,54.5101215 205.533481,60.145749 213.169528,60.145749 C221.392964,60.145749 226.287866,53.5384615 226.287866,45.4736842 Z M247.684706,70.7368421 L247.684706,19.9190283 L261.194636,19.9190283 L261.194636,70.7368421 L247.684706,70.7368421 Z M246.50993,7.67611336 C246.50993,3.30364372 249.936361,0 254.341773,0 C258.845083,0 262.271514,3.30364372 262.271514,7.67611336 C262.271514,12.048583 258.845083,15.3522267 254.341773,15.3522267 C249.936361,15.3522267 246.50993,12.048583 246.50993,7.67611336 Z M319.406203,19.9771953 L319.406203,35.611336 L319.406203,70.7368421 L307.679458,70.7368421 L306.679458,65.4898785 C305.308885,67.1417004 300.218187,72 291.505261,72 C276.820555,72 266.443363,61.0202429 266.443363,45.3765182 C266.443363,29.6356275 276.037371,18.6558704 290.722077,18.6558704 C299.532901,18.6558704 304.623599,23.51417 305.896273,25.2631579 L305.896273,19.9771953 L319.406203,19.9771953 Z M306.287866,45.4736842 C306.287866,35.951417 300.609779,30.5101215 293.169528,30.5101215 C285.337685,30.5101215 280.051191,36.6315789 280.051191,45.4736842 C280.051191,54.5101215 285.533481,60.145749 293.169528,60.145749 C301.392964,60.145749 306.287866,53.5384615 306.287866,45.4736842 Z M354.692882,18.6558704 C369.27969,18.6558704 372.412427,30.6072874 372.412427,41.3927126 L372.412427,70.7368421 L358.902498,70.7368421 L358.902498,39.8380567 C358.902498,34.2024291 354.986576,30.7044534 350.385368,30.7044534 C344.80518,30.7044534 341.28085,34.7854251 341.28085,40.2267206 L341.28085,70.7368421 L327.770921,70.7368421 L327.770921,19.9190283 L339.987156,19.9190283 L340.987156,25.8461538 C343.140913,22.3481781 348.035815,18.6558704 354.692882,18.6558704 Z M386.956405,72 C382.257299,72 378.635071,68.3076923 378.635071,63.8380567 C378.635071,59.2712551 382.257299,55.4817814 386.956405,55.4817814 C391.655511,55.4817814 395.277738,59.2712551 395.277738,63.8380567 C395.277738,68.3076923 391.655511,72 386.956405,72 Z M401.989873,70.7368421 L401.989873,19.9190283 L415.499802,19.9190283 L415.499802,70.7368421 L401.989873,70.7368421 Z M400.815096,7.67611336 C400.815096,3.30364372 404.241528,0 408.646939,0 C413.150249,0 416.576681,3.30364372 416.576681,7.67611336 C416.576681,12.048583 413.150249,15.3522267 408.646939,15.3522267 C404.241528,15.3522267 400.815096,12.048583 400.815096,7.67611336 Z M474,0.48582996 L474,70.7368421 L462.273255,70.7368421 L461.273255,65.4898785 C459.902682,67.1417004 454.811984,72 446.099058,72 C431.414352,72 421.03716,61.0202429 421.03716,45.3765182 C421.03716,29.6356275 430.631168,18.6558704 445.315874,18.6558704 C454.126698,18.6558704 459.217396,23.51417 460.49007,25.2631579 L460.49007,0.48582996 L474,0.48582996 Z M460.881663,45.4736842 C460.881663,35.951417 455.203576,30.5101215 447.763325,30.5101215 C439.931482,30.5101215 434.644988,36.6315789 434.644988,45.4736842 C434.644988,54.5101215 440.127278,60.145749 447.763325,60.145749 C455.986761,60.145749 460.881663,53.5384615 460.881663,45.4736842 Z" id="meridian.id-medium-complete"></path>
        </g>
    </g>
</svg>